<?xml version="1.0" encoding="utf-8"?>
<!-- Generator: Adobe Illustrator 22.0.1, SVG Export Plug-In . SVG Version: 6.00 Build 0)  -->
<svg version="1.1" id="Layer_1" xmlns="http://www.w3.org/2000/svg" xmlns:xlink="http://www.w3.org/1999/xlink" x="0px" y="0px"
	 viewBox="0 0 200 200" style="enable-background:new 0 0 200 200;" xml:space="preserve">
<g>
	<polygon style="fill:#202B43;" points="190.3,161.8 179.5,161.8 175.8,170.3 106.5,170.3 100.8,164.3 93,174.8 100.7,183 
		183.3,183 186.2,174.8 194.7,174.8 	"/>
	<polygon style="fill:#202B43;" points="106.3,165.3 124.3,165.3 99.8,135.3 79.3,166.8 24.2,166.8 20.5,158.5 9.7,158.3 5.3,171.3 
		13.8,171.3 16.7,179.5 85.7,179.5 100,157.6 	"/>
	<polygon style="fill:#202B43;" points="27.3,158.8 42.5,158.8 34.7,136.5 26.3,136.5 61.5,30.1 98.3,30.3 100,30.3 101.7,30.3 
		138.5,30.1 174.8,140 166.5,140 158.5,162.3 173.8,162.3 176.8,154 193,154 147.8,17 104,17 100,23 95.8,17 52.2,17 8,150.6 
		24.3,150.6 	"/>
	<polygon style="fill:#202B43;" points="120.5,66 100,86.5 79.5,66 70,75.5 90.5,96 70,116.5 79.5,126 100,105.5 120.5,126 
		130,116.5 109.5,96 130,75.5 	"/>
</g>
</svg>
