<?xml version="1.0" encoding="utf-8"?>
<!-- Generator: Adobe Illustrator 22.0.1, SVG Export Plug-In . SVG Version: 6.00 Build 0)  -->
<svg version="1.1" id="Layer_1" xmlns="http://www.w3.org/2000/svg" xmlns:xlink="http://www.w3.org/1999/xlink" x="0px" y="0px"
	 viewBox="0 0 366 101" style="enable-background:new 0 0 366 101;" xml:space="preserve">
<style type="text/css">
	.st0{fill:#EEEEEE;}
	.st1{fill:#41B7A1;}
</style>
<g>
	<g>
		<polygon class="st0" points="4,27.8 26.7,27.8 26.7,89.3 47.7,89.3 47.7,27.8 69,27.8 69,10.4 4,10.4 		"/>
		<path class="st0" d="M126.5,10.4h-9.9H72.4v79h20.9V60.5h28.5V43H93.3V27.9h23.4h9.9h32.7v32.3c0,10-3.7,12.6-10.6,12.6
			c-4.9,0-9.9-2.9-14.3-8.1l-11.8,13c7.4,9.9,18.1,13,26.9,13c22.7,0,30.7-13.2,30.7-28.9V10.3L126.5,10.4L126.5,10.4L126.5,10.4z"
			/>
	</g>
	<g>
		<path class="st0" d="M213.7,70.8l2.1-2.5c1,1.2,1.9,1.8,3.1,1.8c1.6,0,2.3-1,2.3-2.8v-8h-5.8v-3.1h9.7V67c0,4.1-2.1,6.2-6.1,6.2
			C217,73.3,215,72.4,213.7,70.8z"/>
		<path class="st0" d="M228.9,65.6v-9.3h3.8v9.2c0,3.2,1.4,4.5,3.7,4.5s3.7-1.3,3.7-4.5v-9.2h3.8v9.3c0,4.9-2.9,7.6-7.5,7.6
			S228.9,70.5,228.9,65.6z"/>
		<path class="st0" d="M247.9,56.3h7.5c5.4,0,9.2,3.3,9.2,8.4s-3.7,8.4-9.2,8.4h-7.5L247.9,56.3L247.9,56.3z M255.2,69.8
			c3.3,0,5.5-2,5.5-5.2c0-3.2-2.1-5.2-5.5-5.2h-3.5v10.4H255.2z"/>
		<path class="st0" d="M278.9,64.4h3.5v6.8c-1.8,1.4-4.4,2.1-6.8,2.1c-5.2,0-9.1-3.6-9.1-8.6s3.8-8.6,9.2-8.6c3,0,5.4,1,7,2.9
			l-2.4,2.3c-1.2-1.3-2.7-1.9-4.4-1.9c-3.3,0-5.4,2.1-5.4,5.3c0,3.1,2.2,5.3,5.4,5.3c1.1,0,2-0.2,3-0.7L278.9,64.4L278.9,64.4z"/>
		<path class="st0" d="M299,69.9V73h-13V56.3h12.6v3.1h-8.8V63h7.8v3h-7.8v3.8L299,69.9L299,69.9L299,69.9z"/>
	</g>
</g>
<g>
	<path class="st1" d="M244.3,35v3.1h-13V21.4H244v3.1h-8.8v3.6h7.8v3h-7.8v3.8L244.3,35L244.3,35z"/>
	<path class="st1" d="M258.4,34.6h-7.8l-1.5,3.6h-3.9l7.4-16.7h3.8l7.4,16.7h-4L258.4,34.6z M257.1,31.6l-2.7-6.4l-2.7,6.4H257.1z"
		/>
	<path class="st1" d="M280.9,38.1v-10l-4.9,8.3h-1.8l-4.9-8.1v9.8h-3.6V21.4h3.2l6.3,10.4l6.2-10.4h3.2v16.7H280.9z"/>
	<path class="st1" d="M292.4,24.5V29h7.8v3.1h-7.8v6.1h-3.8V21.4h12.6v3.1H292.4z"/>
	<path class="st1" d="M303.8,21.4h3.8v16.7h-3.8V21.4z"/>
	<path class="st1" d="M322.9,29.5h3.5v6.8c-1.8,1.4-4.4,2.1-6.8,2.1c-5.2,0-9.1-3.6-9.1-8.6s3.8-8.6,9.2-8.6c3,0,5.4,1,7,2.9
		l-2.4,2.3c-1.2-1.3-2.7-1.9-4.4-1.9c-3.3,0-5.4,2.1-5.4,5.3c0,3.1,2.2,5.3,5.4,5.3c1.1,0,2-0.2,3-0.7L322.9,29.5L322.9,29.5z"/>
	<path class="st1" d="M345.3,21.4v16.7h-3.8v-6.9H334v6.9h-3.8V21.4h3.8V28h7.5v-6.6H345.3z"/>
	<path class="st1" d="M352.8,24.6h-5.3v-3.2H362v3.2h-5.3v13.6h-3.8V24.6H352.8z"/>
	<path class="st1" d="M219.7,24.6h-5.3v-3.2h14.5v3.2h-5.3v13.6h-3.8V24.6H219.7z"/>
</g>
</svg>
