<?xml version="1.0" encoding="utf-8"?>
<!-- Generator: Adobe Illustrator 22.0.1, SVG Export Plug-In . SVG Version: 6.00 Build 0)  -->
<svg version="1.1" id="filling_stage" xmlns="http://www.w3.org/2000/svg" xmlns:xlink="http://www.w3.org/1999/xlink" x="0px"
	 y="0px" viewBox="0 0 202.7 192.7" style="enable-background:new 0 0 202.7 192.7;" xml:space="preserve">
<g>
	<g>
		<g>
			<path style="fill:#41B7A1;" d="M99.6,26.6L99.6,26.6l1.7,0L99.6,26.6z"/>
		</g>
	</g>
	<g>
		<g>
			<polygon style="fill:#41B7A1;" points="196,171.1 187.5,171.1 184.6,179.3 102,179.3 94.3,171.1 102.1,160.7 107.8,166.7 
				177.1,166.7 180.8,158.2 191.7,158.1 			"/>
		</g>
	</g>
	<g>
		<g>
			<polygon style="fill:#41B7A1;" points="125.7,161.6 107.7,161.7 101.4,154 87,175.8 18,175.8 15.2,167.7 6.7,167.7 11,154.7 
				21.9,154.8 25.5,163.2 80.6,163.2 101.2,131.6 			"/>
		</g>
	</g>
	<g>
		<path style="fill:#41B7A1;" d="M101.3,26.6h1.7v0L101.3,26.6z"/>
		<polygon style="fill:#41B7A1;" points="194.4,150.4 178.1,150.4 175.2,158.6 159.9,158.6 167.8,136.3 176.1,136.3 139.8,26.5 
			103,26.6 101.3,26.6 99.6,26.6 62.8,26.5 27.7,132.8 36,132.8 43.9,155.1 28.6,155.1 25.7,147 9.3,147 53.5,13.4 97.2,13.4 
			101.3,19.3 105.3,13.4 149.1,13.4 		"/>
	</g>
</g>
</svg>
