<?xml version="1.0" encoding="utf-8"?>
<!-- Generator: Adobe Illustrator 22.0.1, SVG Export Plug-In . SVG Version: 6.00 Build 0)  -->
<svg version="1.1" id="filling_stage" xmlns="http://www.w3.org/2000/svg" xmlns:xlink="http://www.w3.org/1999/xlink" x="0px"
	 y="0px" viewBox="0 0 202.7 192.7" style="enable-background:new 0 0 202.7 192.7;" xml:space="preserve">
<style type="text/css">
	.st0{fill:#41B7A1;}
</style>
<rect x="63.1" y="52.4" class="st0" width="12.6" height="22">
<animateTransform  accumulate="none" additive="replace" attributeName="transform" attributeType="xml" begin="0s" calcMode="linear" dur="1s" fill="remove" repeatCount="indefinite" restart="always" type="scale" values="1; 1,2; 1">
	</animateTransform>
</rect>
<rect x="94.5" y="52.4" class="st0" width="12.6" height="22">
<animateTransform  accumulate="none" additive="replace" attributeName="transform" attributeType="xml" begin="0.2s" calcMode="linear" dur="1s" fill="remove" repeatCount="indefinite" restart="always" type="scale" values="1; 1,2; 1">
	</animateTransform>
</rect>
<rect x="125.9" y="52.4" class="st0" width="12.6" height="22">
<animateTransform  accumulate="none" additive="replace" attributeName="transform" attributeType="xml" begin="0.4s" calcMode="linear" dur="1s" fill="remove" repeatCount="indefinite" restart="always" type="scale" values="1; 1,2; 1">
	</animateTransform>
</rect>
<path class="st0" d="M99.2,27L99.2,27h1.9H99.2z"/>
<polygon class="st0" points="195.7,171.5 187.2,171.5 184.4,179.7 101.7,179.7 94.2,171.5 101.7,161.2 107.4,167.1 176.8,167.1 
	180.6,158.7 191.3,158.3 "/>
<polygon class="st0" points="125.3,161.8 107.4,162.1 101.1,154.3 86.6,176.3 17.8,176.3 15,168.1 6.2,168.1 10.6,154.9 21.6,155.2 
	25.3,163.7 80.3,163.7 100.8,131.9 "/>
<path class="st0" d="M101.1,27h1.9l0,0H101.1z"/>
<polygon class="st0" points="194.1,150.8 177.8,150.8 175,159 159.6,159 167.4,136.7 175.9,136.7 139.4,27 102.7,27 101.1,27 
	99.2,27 62.4,27 27.5,133.2 35.7,133.2 43.6,155.5 28.2,155.5 25.3,147.3 9,147.3 53,13.8 97,13.8 101.1,19.4 104.9,13.8 
	148.9,13.8 "/>
</svg>
